<svg xmlns="http://www.w3.org/2000/svg" width="256" height="256"><path fill-opacity=".051" d="M0 128.004v128.004l128.25-.254 128.25-.254.254-127.75L257.008 0H0v128.004m.485.496c0 70.4.119 99.053.265 63.672.146-35.38.146-92.98 0-128C.604 29.153.485 58.1.485 128.5" fill="#1976D2" fill-rule="evenodd"/><path fill-opacity=".107" d="M0 128.011v126.997l128.25-.254 128.25-.254.254-127 .254-127-128.504.258L0 1.015v126.996M.485 128c0 70.125.119 98.813.265 63.75.146-35.062.146-92.437 0-127.5C.604 29.188.485 57.875.485 128M16 54.692v17.851l23.25 4.339C52.038 79.268 78.025 84.111 97 87.643c18.975 3.532 37.312 7.016 40.75 7.743 7.074 1.494 7.106 1.476 9.911-5.386 2.521-6.168 2.308-16.693-.495-24.442-1.182-3.268-2.506-6.298-2.942-6.734-1.443-1.443-49.69-9.856-99.224-17.302-12.925-1.943-24.738-3.791-26.25-4.107L16 36.841v17.851m216.5 32.349C216.702 89.848 169.39 98 159.644 99.594c-4.87.797-9.678 1.889-10.684 2.427-1.006.539-3.546.982-5.644.986-2.099.003-8.991.9-15.316 1.993-6.325 1.093-11.772 1.99-12.105 1.993-.333.004-.662 3.044-.732 6.757-.07 3.713-.415 12.433-.767 19.378l-.639 12.628 51.871-10.352c28.53-5.693 57.835-11.562 65.122-13.041l13.25-2.689v-17.337c0-9.535-.338-17.278-.75-17.205l-10.75 1.909" fill="#1976D2" fill-rule="evenodd"/><path fill-opacity=".315" d="M0 128.011v126.997l128.25-.254 128.25-.254.254-127 .254-127-128.504.258L0 1.015v126.996M.38 128c-.059 70.125.078 126.556.306 125.402.379-1.923.736-2.011 4.3-1.06 5.467 1.459 9.266-.305 8.83-4.1-.246-2.132-1.317-3.222-4.816-4.901-5.845-2.803-5.941-4.871-.221-4.753 4.675.097 5.281-1.527.999-2.672-3.401-.91-7.193 1.042-7.605 3.914-.427 2.981 1.166 4.788 4.873 5.529 3.367.674 4.981 3.364 2.85 4.752-.768.5-2.513.645-3.877.322-1.365-.323-2.94-.665-3.5-.76C1.837 249.557 1.333 208.351.994 125L.488.5.38 128m15.218-91.264c-.329.328-.598 8.407-.598 17.952 0 17.053.039 17.371 2.25 18.293 1.238.516 10.8 2.515 21.25 4.444a42368.03 42368.03 0 0162.274 11.585c23.801 4.443 43.684 7.825 44.185 7.515.502-.31 1.885-3.142 3.074-6.294 2.813-7.454 2.364-18.047-1.129-26.661l-2.404-5.929-9.5-1.829c-13.926-2.68-72.305-12.29-96-15.803-11.275-1.671-21.019-3.226-21.652-3.455-.634-.229-1.421-.147-1.75.182M166.5 51.153c-8.25 2.788-15.328 5.369-15.728 5.736-.401.367.376 3.355 1.726 6.639 3.384 8.232 3.434 19.591.122 27.643l-2.332 5.67 2.606-1.011c1.433-.556 8.006-3.009 14.606-5.45 6.6-2.441 13.241-4.932 14.758-5.534 6.015-2.388 7.564-20.68 2.803-33.096-1.213-3.163-2.51-5.731-2.883-5.708-.373.023-7.428 2.323-15.678 5.111m41 27.501c-19.599 7.937-46.807 18.587-54.739 21.427-9.417 3.37-6.161 3.723-56.261-6.095C62.912 87.404 57.324 86.28 42 83.023c-7.975-1.695-17.077-3.442-20.226-3.883l-5.725-.802-1.729 5.081c-2.224 6.534-2.008 16.745.488 23.099 1.872 4.765 1.995 4.858 11.292 8.497 47.448 18.569 61.876 24.342 61.579 24.639-.341.341-9.932-1.009-28.679-4.037-22.809-3.685-34.919-5.509-40.75-6.139l-6.25-.674v36.03l5.136 1.102c2.824.605 9.012 1.777 13.75 2.603 4.738.826 11.989 2.151 16.114 2.945a4879.1 4879.1 0 0018.5 3.503c6.05 1.134 15.725 2.957 21.5 4.051 5.775 1.095 20.165 3.819 31.979 6.053l21.478 4.063 1.762-2.176c2.346-2.898 4.781-11.328 4.781-16.554 0-4.761-3.167-15.826-5.461-19.079-1.058-1.501-3.066-2.367-6.622-2.856-2.807-.386-4.724-1.068-4.26-1.516.464-.447 6.243-1.803 12.843-3.014 6.6-1.21 15.15-2.806 19-3.547 3.85-.741 11.725-2.248 17.5-3.349 36.701-6.997 53.379-10.242 59.75-11.625 6.992-1.518 8.897-2.869 5.75-4.076-1.257-.483-1.5-3.502-1.5-18.609 0-15.763.212-18.188 1.687-19.266 1.529-1.118 1.458-1.3-.75-1.941-1.34-.389-7.243-2.246-13.116-4.127-5.874-1.88-11.274-3.374-12-3.319-.727.054-6.271 2.104-12.321 4.554M20 237c0 .55 1.35 1 3 1h3v7.5c0 5.332.361 7.501 1.25 7.502.918.002 1.163-1.988.921-7.5L27.842 238h3.079c1.693 0 3.079-.45 3.079-1 0-.571-3-1-7-1s-7 .429-7 1m21.189 5.634c.346 5.421.844 6.974 2.728 8.5 3.157 2.556 6.7 2.34 9.628-.589 2.065-2.064 2.455-3.414 2.455-8.5 0-3.363-.444-6.045-1-6.045-.55 0-1 1.996-1 4.435 0 8.436-3.06 12.066-7.641 9.065-2.043-1.339-2.359-2.346-2.359-7.523 0-4.838-.308-5.977-1.616-5.977-1.369 0-1.552 1.017-1.195 6.634M64 244.5v8.5h3.351c9.916 0 14.944-7.542 9.576-14.365-1.784-2.268-2.827-2.635-7.5-2.635H64v8.5m22.012-7.75c.007.412 1.132 2.708 2.5 5.102S91 247.733 91 249.602c0 2.354.461 3.398 1.5 3.398 1.022 0 1.506-1.036 1.518-3.25.01-1.787 1.321-5.613 2.913-8.5 2.077-3.767 2.501-5.25 1.502-5.25-.766 0-2.311 1.8-3.433 4-1.122 2.2-2.247 4-2.5 4-.253 0-1.378-1.8-2.5-4-1.803-3.534-4.022-5.342-3.988-3.25M117 244.5c0 6.327.334 8.5 1.306 8.5.767 0 1.282-1.12 1.25-2.716-.049-2.396.429-2.812 4.047-3.53 5.225-1.036 7.347-4.656 4.908-8.377-1.294-1.976-2.397-2.377-6.534-2.377H117v8.5m20 0v8.5h6c7.103 0 8.103-1.756 1.25-2.195l-4.75-.305-.294-7.25c-.411-10.141-2.206-9.124-2.206 1.25m20.723-1.798c-1.399 3.739-2.858 7.585-3.241 8.548-.476 1.198-.223 1.75.803 1.75.824 0 1.781-1.125 2.126-2.5.52-2.072 1.227-2.5 4.133-2.5 2.819 0 3.692.49 4.456 2.5.523 1.375 1.577 2.5 2.343 2.5 1.88 0-4.572-16.381-6.615-16.798-.991-.201-2.28 1.891-4.005 6.5M176.5 244.5c0 6.133.348 8.5 1.25 8.5.848 0 1.25-1.767 1.25-5.5 0-3.025.338-5.479.75-5.453.412.026 2.713 2.501 5.113 5.5 2.399 2.999 4.761 5.453 5.25 5.453.488 0 .887-3.825.887-8.5 0-5-.412-8.5-1-8.5-.55 0-1 2.475-1 5.5s-.343 5.5-.763 5.5-2.696-2.475-5.059-5.5c-2.362-3.025-4.832-5.5-5.487-5.5-.828 0-1.191 2.59-1.191 8.5m23.5 0c0 5 .412 8.5 1 8.5.55 0 1-2.475 1-5.5s.395-5.5.878-5.5c.484 0 2.788 2.475 5.122 5.5s4.638 5.5 5.122 5.5c.483 0 .878-3.825.878-8.5 0-5-.412-8.5-1-8.5-.55 0-1 2.475-1 5.5s-.338 5.488-.75 5.474c-.412-.014-2.55-2.47-4.75-5.458-5.638-7.656-6.5-7.26-6.5 2.984m23 0v8.5h6c6.827 0 8.204-1.726 1.75-2.193-3.803-.275-4.283-.596-4.566-3.057-.293-2.545-.051-2.75 3.25-2.75 1.961 0 3.566-.45 3.566-1s-1.575-1-3.5-1c-3.067 0-3.5-.31-3.5-2.5 0-2.25.4-2.5 4-2.5 2.2 0 4-.45 4-1s-2.475-1-5.5-1H223v8.5m19 0c0 6.889.284 8.5 1.5 8.5 1 0 1.5-1 1.5-3 0-4.122 3.452-4.126 5.797-.006.936 1.646 2.521 2.996 3.521 3 1.679.006 1.652-.227-.356-3.048-2.007-2.818-2.051-3.19-.568-4.828 1.854-2.05 2.044-4.432.571-7.184-.83-1.55-2.121-1.934-6.5-1.934H242v8.5m-175-.469c0 6.82 1.13 7.971 5.689 5.796 2.073-.989 2.892-2.18 3.121-4.538.476-4.906-1.272-7.289-5.345-7.289H67v6.031m52.465-4.974c-.359.581-.377 2.156-.04 3.5.433 1.727 1.304 2.443 2.972 2.443 3.018 0 4.952-2.325 4.118-4.952-.706-2.225-5.841-2.947-7.05-.991M245 241.437c0 3.033.335 3.561 2.25 3.548 3.381-.023 4.964-1.437 4.587-4.098-.265-1.875-1.034-2.454-3.587-2.7-3.117-.301-3.25-.168-3.25 3.25m-84.876.636c-1.559 4.473-1.447 4.927 1.209 4.927 3.227 0 3.713-.776 2.41-3.85-1.822-4.299-2.432-4.481-3.619-1.077" fill="#1976D2" fill-rule="evenodd"/><path fill-opacity=".676" d="M0 128.011v126.997l128.25-.254 128.25-.254.254-127 .254-127-128.504.258L0 1.015v126.996M.362 128C.29 198.125.438 254.713.689 253.75c.252-.963.54-1.75.641-1.75.101 0 1.655.422 3.455.938 4.447 1.276 9.041-.395 9.84-3.578.761-3.032-1.704-5.999-5.717-6.88-3.342-.734-4.579-2.209-3.097-3.691.717-.717 1.966-.714 4.036.008 2.451.854 3.109.759 3.6-.519.801-2.087.412-2.353-4.387-2.997-3.095-.415-4.59-.111-6.078 1.236-1.964 1.776-1.975 1.181-2.232-117.116L.492.5.362 128M111 3.463c-5.713 1.63-61.548 18.09-82 24.172-8.525 2.536-15.866 4.944-16.314 5.352-.448.408-.111 1.445.75 2.306 2.283 2.283 2.342 37.471.064 38.345-1.961.753-1.92 3.028.075 4.144 1.428.799 1.416 1.37-.129 6.092-2.064 6.31-1.586 17.487 1.02 23.85 1.606 3.92 2.262 4.421 9.132 6.976 4.071 1.514 7.402 3 7.402 3.303 0 .303-4.744 1.85-10.542 3.438-5.799 1.588-10.753 3.227-11.009 3.642-.257.416.212 1.435 1.042 2.265C11.723 128.58 12 132.114 12 146.6c0 15.337-.232 17.999-1.71 19.632-1.294 1.43-1.412 2.075-.482 2.649 1.432.885-2.739.05 72.675 14.557l58.982 11.346 15.018-5.84A8768.435 8768.435 0 00187 176.995a4880.437 4880.437 0 0134.247-13.303l18.747-7.192 2.09-5.5c2.019-5.31 2.196-10.959.722-23-.238-1.946.193-2.571 1.944-2.82 2.575-.365 3.115-3.634.75-4.542-1.254-.481-1.5-3.434-1.5-18 0-14.565.246-17.518 1.5-18 3.949-1.515.959-3.453-10.969-7.109-6.858-2.101-12.284-4.12-12.058-4.485.225-.365 4.995-2.4 10.599-4.522 9.917-3.756 10.242-3.978 12.169-8.334 1.647-3.722 1.913-6.094 1.58-14.082-.358-8.583-.758-10.273-3.76-15.874-2.112-3.941-4.139-6.447-5.46-6.75-1.156-.265-16.951-3.188-35.101-6.495-18.15-3.308-33.675-6.217-34.5-6.465-.825-.248-6.675-1.366-13-2.485a7031.155 7031.155 0 01-22.5-4.022c-12.56-2.27-15.238-2.339-21.5-.552m64.5 135.587c-3.319.797-27.401 9.518-28.037 10.154-.22.22.7 3.077 2.044 6.348 3.106 7.555 3.324 18.352.533 26.437-1.042 3.019-1.733 5.651-1.536 5.848.197.197 7.579-2.483 16.405-5.956 14.64-5.761 16.14-6.58 17.117-9.348 2.882-8.162 2.077-22.188-1.745-30.384-1.64-3.517-2.018-3.762-4.781-3.099M20 236.5c0 .933.944 1.5 2.5 1.5 2.444 0 2.5.167 2.5 7.5 0 6.833.178 7.5 2 7.5s2-.667 2-7.5V238h3c2 0 3-.5 3-1.5 0-1.2-1.5-1.5-7.5-1.5s-7.5.3-7.5 1.5m21 5.5c0 8.489 1.791 11 7.845 11 5.666 0 7.508-2.553 7.989-11.073.368-6.507.264-6.927-1.721-6.927-1.908 0-2.113.563-2.113 5.809 0 7.04-1.603 9.759-5.217 8.851-2.74-.687-3.783-3.661-3.783-10.785 0-2.778-.425-3.875-1.5-3.875-1.19 0-1.5 1.444-1.5 7m23 2v9h5.326c6.945 0 10.193-2.998 10.029-9.257C79.203 237.95 75.69 235 68.944 235H64v9m23.519-2.667c1.915 3.483 3.481 7.533 3.481 9 0 1.704.542 2.667 1.5 2.667.957 0 1.5-.962 1.5-2.654 0-1.46 1.597-5.51 3.549-9 3.286-5.876 3.399-6.346 1.52-6.346-1.376 0-2.718 1.351-4.17 4.199l-2.143 4.199-2.479-4.199c-1.514-2.563-3.212-4.199-4.36-4.199-1.67 0-1.493.703 1.602 6.333M116 244c0 8.23.165 9 1.934 9 1.366 0 2.026-.807 2.25-2.75.256-2.226.888-2.814 3.316-3.084 3.962-.44 6.5-2.848 6.5-6.166 0-4.075-2.832-6-8.829-6H116v9m20 0v9h6.5c5.111 0 6.5-.321 6.5-1.5 0-1.111-1.167-1.5-4.5-1.5H140v-7.5c0-6.833-.178-7.5-2-7.5-1.852 0-2 .667-2 9m23.307-7.25c-.347.963-1.869 5.012-3.381 9-2.66 7.01-2.685 7.25-.745 7.25 1.165 0 2.225-.838 2.529-2 .391-1.493 1.364-2 3.839-2 2.438 0 3.484.53 3.951 2 .361 1.139 1.513 2 2.674 2 1.215 0 1.851-.506 1.573-1.25-.258-.687-1.768-4.733-3.357-8.989-2.114-5.66-3.369-7.742-4.671-7.75-.98-.006-2.065.776-2.412 1.739M176 244c0 8.253.162 9 1.948 9 1.634 0 1.996-.815 2.25-5.07l.302-5.071 3.858 5.071c2.243 2.948 4.649 5.07 5.75 5.07 1.716 0 1.892-.837 1.892-9 0-8.257-.161-9-1.95-9-1.662 0-1.994.816-2.25 5.527l-.3 5.528-4.309-5.528C176.983 232.563 176 233.038 176 244m23 0c0 8.253.162 9 1.948 9 1.644 0 1.995-.817 2.25-5.235l.302-5.235 4 5.192c2.2 2.856 4.787 5.212 5.75 5.235 1.54.038 1.75-1.036 1.75-8.957 0-8.333-.148-9-2-9-1.766 0-2 .667-2 5.688v5.687l-4.25-5.639c-2.338-3.102-5.037-5.661-6-5.688-1.541-.042-1.75 1.029-1.75 8.952m23 0v9h6.5c5.111 0 6.5-.321 6.5-1.5 0-1.111-1.167-1.5-4.5-1.5-3.787 0-4.5-.307-4.5-1.94 0-1.519.812-2.006 3.75-2.25 5.211-.431 5.164-3.193-.061-3.624-2.943-.243-3.738-.698-3.491-2 .228-1.203 1.533-1.774 4.561-1.993 2.886-.21 4.241-.769 4.241-1.75 0-1.109-1.504-1.443-6.5-1.443H222v9m20 0c0 7.148.295 9 1.434 9 .819 0 1.569-1.175 1.75-2.741.436-3.783 2.991-3.926 5.14-.288 1.015 1.719 2.63 3.029 3.733 3.029 2.338 0 2.389-.39.437-3.369-1.345-2.053-1.339-2.634.055-5.428 1.263-2.532 1.331-3.566.356-5.416-1.713-3.252-2.8-3.754-8.155-3.772L242 235v9m-174 0c0 5.696.124 6 2.443 6 2.627 0 5.557-3.281 5.557-6.223 0-2.386-3.521-5.777-6-5.777-1.778 0-2 .667-2 6m52-3c0 2.828.268 3.102 2.75 2.816 2.182-.251 2.75-.832 2.75-2.816s-.568-2.565-2.75-2.816c-2.482-.286-2.75-.012-2.75 2.816m125.362-1.5c-.945 2.462.414 4.5 3 4.5 2.785 0 4.211-2.605 2.533-4.627-1.516-1.826-4.813-1.75-5.533.127m-84.737 2.868c-.813 3.227-.451 3.961 1.71 3.47 1.259-.285 1.299-.805.252-3.338l-1.24-3-.722 2.868M1 245.91c0 1.516.563 2.845 1.25 2.952 4.227.662 7.714.5 7.802-.362.107-1.043-.441-1.408-5.802-3.86-3.24-1.482-3.25-1.478-3.25 1.27" fill="#1976D2" fill-rule="evenodd"/></svg>